<svg version="1.1" xmlns="http://www.w3.org/2000/svg" xmlns:xlink="http://www.w3.org/1999/xlink" x="0px" y="0px"
	 viewBox="0 0 99.9 287.5" style="enable-background:new 0 0 99.9 287.5;" xml:space="preserve">
<g id="Lag_2">
	<path d="M37.5,1.2C10,6.5-6.5,50,3.6,82.7c7.4,23.9,31.7,50.9,57.8,46.2c26.8-4.8,40.3-40.3,37.6-66.6C95.6,28.9,64.5-4.1,37.5,1.2
		z"/>
</g>
<g id="Lag_3">
	<path d="M66.8,127.5c4.3,3.2,12.6,10.2,13.8,20.7c0.6,4.9-0.6,9-4.9,19.8c-10.1,25-12.2,23.9-13.1,30C60,216,78.5,222.8,81,242.1
		c1.3,9.9-1.4,24.8-20.9,44.9c-1-0.7-2.1-1.3-3.1-2c19.6-19.5,22.7-34,21.4-43.9c-2.3-18.8-20.2-24.6-18.1-42.4
		c0.9-7.4,4-7.2,13.3-32.5c3.1-8.5,4.3-12.7,3.6-17.9c-1.4-10.1-9-16.9-13.1-20C65,128.1,65.9,127.8,66.8,127.5z"/>
</g>
</svg>